<svg width="201" height="89" viewBox="0 0 201 89" fill="none" xmlns="http://www.w3.org/2000/svg">
<path d="M6.07536 12.2734C9.29385 12.2734 11.9027 9.63244 11.9027 6.37471C11.9027 3.11698 9.29385 0.476074 6.07536 0.476074C2.85721 0.476074 0.248047 3.11698 0.248047 6.37471C0.248047 9.63244 2.85721 12.2734 6.07536 12.2734Z" fill="#F99909"/>
<path d="M1.53027 21.1213V68.3106H10.4655V21.1213H1.53027Z" fill="#F99909"/>
<path fill-rule="evenodd" clip-rule="evenodd" d="M43.6061 19.745C31.7406 19.745 23.4602 29.9029 23.4602 41.9631C23.4602 54.0236 31.7406 64.1814 43.6061 64.1814C49.0383 64.1814 53.5151 62.0525 56.7732 58.5872V64.8697C56.7732 72.688 50.7061 79.2229 42.7877 79.2229C39.9415 79.2229 37.1136 78.1061 34.8606 76.5344L30.3835 84.3834C33.9592 86.7166 38.2172 88.0708 42.7877 88.0708C55.4467 88.0708 65.7084 77.6832 65.7084 64.8697V21.1213H56.7732V25.3394C53.5151 21.8738 49.0383 19.745 43.6061 19.745ZM32.3954 41.9631C32.3954 34.4771 38.0526 28.5929 44.5774 28.5929C51.1026 28.5929 56.7594 34.4771 56.7594 41.9631C56.7594 49.4492 51.1026 55.3335 44.5774 55.3335C38.0526 55.3335 32.3954 49.4492 32.3954 41.9631Z" fill="#F99909"/>
<path d="M97.9047 28.5929C92.6212 28.5929 88.3381 33.125 88.3381 38.473V68.3106H79.4028V21.1213H88.3381V25.4441C90.9562 22.0183 94.8133 19.745 99.847 19.745C106.108 19.745 110.913 22.8928 113.696 27.7102C116.791 23.057 121.839 19.745 127.915 19.745C138.085 19.745 144.415 28.0503 144.475 38.3256C144.475 38.3566 144.475 38.3876 144.475 38.419V38.4207V38.4221V38.4239C144.475 38.4403 144.475 38.4567 144.475 38.473V68.3106H135.54V38.473C135.54 33.125 131.257 28.5929 125.973 28.5929C120.689 28.5929 116.406 33.125 116.406 38.473V68.3106H107.471V38.473C107.471 33.125 103.188 28.5929 97.9047 28.5929Z" fill="#F99909"/>
<path fill-rule="evenodd" clip-rule="evenodd" d="M192.065 26.4707C188.09 22.3158 182.646 19.745 176.331 19.745C163.038 19.745 153.604 31.1374 153.604 44.7158C153.604 58.2943 163.038 69.6867 176.331 69.6867C182.646 69.6867 188.09 67.1161 192.065 62.9611V68.3106H201V21.1213H192.065V26.4707ZM162.54 44.7158C162.54 35.7075 169.354 28.5929 177.302 28.5929C185.25 28.5929 192.065 35.7075 192.065 44.7158C192.065 53.7244 185.25 60.8388 177.302 60.8388C169.354 60.8388 162.54 53.7244 162.54 44.7158Z" fill="#F99909"/>
</svg>
